# AST/ASF file generated using VICON BodyLanguage
# -----------------------------------------------
:version 1.10
:name VICON
:units
  mass 1.0
  length 0.45
  angle deg
:documentation
   .ast/.asf automatically generated from VICON data using
   VICON BodyBuilder and BodyLanguage model FoxedUp or BRILLIANT.MOD
:root
   order TX TY TZ RX RY RZ
   axis XYZ
   position 0 0 0  
   orientation 0 0 0 
:bonedata
  begin
     id 1 
     name lhipjoint
     direction 0.570549 -0.739093 0.358072 
     length 2.41801 
     axis 0 0 0  XYZ
  end
  begin
     id 2 
     name lfemur
     direction 0.34202 -0.939693 0  
     length 7.44434  
     axis 0 0 20  XYZ
    dof rx ry rz
    limits (-160.0 20.0)
           (-70.0 70.0)
           (-60.0 70.0)
  end
  begin
     id 3 
     name ltibia
     direction 0.34202 -0.939693 0   
     length 7.60047   
     axis 0 0 20   XYZ
    dof rx
    limits (-10.0 170.0)
  end
  begin
     id 4 
     name lfoot
     direction 0.0909041 -0.249757 0.964032   
     length 2.03437   
     axis -90 7.62852e-016 20   XYZ
    dof rx rz
    limits (-45.0 90.0)
           (-70.0 20.0)
  end
  begin
     id 5 
     name ltoes
     direction 1.53547e-011 -4.2174e-011 1   
     length 1.02054   
     axis -90 7.62852e-016 20   XYZ
    dof rx
    limits (-90.0 20.0)
  end
  begin
     id 6 
     name rhipjoint
     direction -0.558096 -0.746754 0.361784   
     length 2.3932  
     axis 0 0 0  XYZ 
  end
  begin
     id 7 
     name rfemur
     direction -0.34202 -0.939693 0   
     length 7.3886   
     axis 0 0 -20   XYZ
    dof rx ry rz
    limits (-160.0 20.0)
           (-70.0 70.0)
           (-70.0 60.0)
  end
  begin
     id 8 
     name rtibia
     direction -0.34202 -0.939693 0   
     length 7.4839   
     axis 0 0 -20   XYZ
    dof rx
    limits (-10.0 170.0)
 end
 begin
     id 9 
     name rfoot
     direction -0.114619 -0.314914 0.942174   
     length 2.25127  
     axis -90 -7.62852e-016 -20   XYZ
    dof rx rz
    limits (-45.0 90.0)
           (-20.0 70.0)
  end
  begin
     id 10 
     name rtoes
     direction -1.53518e-011 -4.21881e-011 1   
     length 1.11821   
     axis -90 -7.62852e-016 -20   XYZ
    dof rx
    limits (-90.0 20.0)
  end
  begin
     id 11 
     name lowerback
     direction -0.00902269 0.996426 -0.0839821   
     length 2.25052   
     axis 0 0 0   XYZ
    dof rx ry rz
    limits (-20.0 45.0)
           (-30.0 30.0)
           (-30.0 30.0)
  end
  begin
     id 12 
     name upperback
     direction 0.0370973 0.999169 -0.0168941   
     length 2.24876   
     axis 0 0 0   XYZ
    dof rx ry rz
    limits (-20.0 45.0)
           (-30.0 30.0)
           (-30.0 30.0)
  end
  begin
     id 13 
     name thorax
     direction 0.0402726 0.998931 0.0227027   
     length 2.26408   
     axis 0 0 0   XYZ
    dof rx ry rz
    limits (-20.0 45.0)
           (-30.0 30.0)
           (-30.0 30.0)
  end
  begin
     id 14 
     name lowerneck
     direction -0.0733697 0.98508 0.155675   
     length 1.58204   
     axis 0 0 0   XYZ
    dof rx ry rz
    limits (-20.0 45.0)
           (-30.0 30.0)
           (-30.0 30.0)
  end
  begin
     id 15 
     name upperneck
     direction 0.0426554 0.993501 -0.105526   
     length 1.61222   
     axis 0 0 0   XYZ
    dof rx ry rz
    limits (-20.0 45.0)
           (-30.0 30.0)
           (-30.0 30.0)
  end
  begin
     id 16
     name head
     direction 0.020792 0.998384 -0.0528868  
     length 1.61527  
     axis 0 0 0   XYZ
    dof rx ry rz
    limits (-20.0 45.0)
           (-30.0 30.0)
           (-30.0 30.0)
  end
  begin
     id 17 
     name lclavicle
     direction 0.967109 0.155462 -0.201325  
     length 3.59357  
     axis 0 0 0   XYZ
    dof ry rz
    limits (-20.0 10.0)
           (0.0 20.0)
  end
  begin
     id 18 
     name lhumerus
     direction 1 -4.48968e-011 2.38195e-027   
     length 5.38154   
     axis 180 -30 -90   XYZ
    dof rx ry rz
    limits (-60.0 90.0)
           (-90.0 90.0)
           (-90.0 90.0)
  end
  begin
     id 19
     name lradius
     direction 1 -4.48961e-011 4.85371e-027   
     length 3.33312   
     axis 180 -30 -90   XYZ
    dof rx
    limits (-10.0 170.0)
  end
  begin
     id 20
     name lwrist
     direction 1 -4.48961e-011 4.76515e-027   
     length 1.66656   
     axis -3.27502e-015 90 90   XYZ
    dof ry
    limits (-180.0 0.0)
 end
  begin
     id 21 
     name lhand
     direction 1 -4.48951e-011 9.53074e-027   
     length 0.710789   
     axis -6.08098e-015 90 90   XYZ
    dof rx rz
    limits (-90.0 90.0)
           (-45.0 45.0)
  end
  begin
     id 22 
     name lfingers
     direction 1 -4.48953e-011 1.90613e-026   
     length 0.573057   
     axis -1.21619e-014 90 90   XYZ
    dof rx
    limits (0.0 90.0)
  end
  begin
     id 23
     name lthumb
     direction 0.707107 -6.34973e-011 0.707107   
     length 0.822798   
     axis -90 45 -9.86923e-015   XYZ
    dof rx rz
    limits (-45.0 45.0)
           (-45.0 45.0)
  end
  begin
     id 24 
     name rclavicle
     direction -0.9585 0.265289 -0.104398   
     length 3.42039  
     axis 0 0 0   XYZ 
    dof ry rz
    limits (-10.0 20.0)
           (-20.0 0.0)
  end
  begin
     id 25 
     name rhumerus
     direction -1 -4.48977e-011 2.21478e-027  
     length 5.16954   
     axis 180 30 90   XYZ
    dof rx ry rz
    limits (-90.0 60.0)
           (-90.0 90.0)
           (-90.0 90.0)
  end
  begin
     id 26 
     name rradius
     direction -1 -4.48967e-011 5.63677e-027   
     length 3.38287   
     axis 180 30 90   XYZ
    dof rx
    limits (-10.0 170.0)
  end
  begin
     id 27 
     name rwrist
     direction -1 -4.48967e-011 4.76501e-027   
     length 1.69144   
     axis -3.27502e-015 -90 -90   XYZ
    dof ry
    limits (-180.0 0.0)
  end
  begin
     id 28
     name rhand
     direction -1 -4.48902e-011 9.53292e-027   
     length 0.817967   
     axis -6.08098e-015 -90 -90   XYZ
    dof rx rz
    limits (-90.0 90.0)
           (-45.0 45.0)
  end
  begin
     id 29
     name rfingers
     direction -1 -4.49012e-011 1.90561e-026   
     length 0.659466   
     axis -1.21619e-014 -90 -90   XYZ
    dof rx
    limits (0.0 90.0)
  end
  begin
     id 30
     name rthumb
     direction -0.707107 -6.34944e-011 0.707107   
     length 0.946865   
     axis -90 -45 9.86923e-015   XYZ
    dof rx rz
    limits (-45.0 45.0)
           (-45.0 45.0)
  end
:hierarchy
  begin
    root lhipjoint rhipjoint lowerback
    lhipjoint lfemur
    lfemur ltibia
    ltibia lfoot
    lfoot ltoes
    rhipjoint rfemur
    rfemur rtibia
    rtibia rfoot
    rfoot rtoes
    lowerback upperback
    upperback thorax
    thorax lowerneck lclavicle rclavicle
    lowerneck upperneck
    upperneck head
    lclavicle lhumerus
    lhumerus lradius
    lradius lwrist
    lwrist lhand lthumb
    lhand lfingers
    rclavicle rhumerus
    rhumerus rradius
    rradius rwrist
    rwrist rhand rthumb
    rhand rfingers
  end

#!OML:ASF F:\twosubjects\two\wednesday\Session 1\Justin1.ASF
:FULLY-SPECIFIED
:DEGREES
132
root 13.7377 17.7139 4.51131 3.62353 15.1498 -6.66986
lowerback 1.41845 3.34359 3.73053
upperback 0.678018 4.51646 2.47753
thorax -0.0101759 2.26522 0.397947
lowerneck 0.044849 -14.9231 -17.6225
upperneck 14.1968 -22.0273 16.3792
head 8.19857 -10.7198 5.98005
rclavicle -7.42958e-015 5.76476e-015
rhumerus -34.936 -22.6184 -76.3953
rradius 24.2773
rwrist -5.36871
rhand -16.6311 17.7444
rfingers 7.12502
rthumb 9.59127 -12.0173
lclavicle -7.42958e-015 5.76476e-015
lhumerus -47.6259 27.918 63.5129
lradius 24.6427
lwrist -14.7544
lhand 2.35398 31.5492
lfingers 7.12502
lthumb 27.8431 59.506
rfemur 17.7276 -1.67436 30.6585
rtibia -2.22639e-014
rfoot -5.54542 -2.43908
rtoes -13.4089
lfemur -36.1075 -1.37135 -9.30272
ltibia 25.8199
lfoot -14.4328 -0.175987
ltoes -19.6116
133
root 13.8029 17.7153 4.68128 3.58485 14.763 -6.53456
lowerback 1.34876 3.31644 3.56441
upperback 0.754243 4.47167 2.55828
thorax 0.0869677 2.24426 0.579647
lowerneck 0.169332 -14.8289 -18.0541
upperneck 13.9917 -21.8924 16.5095
head 8.15165 -10.6818 6.11427
rclavicle -5.20816e-014 -4.96962e-015
rhumerus -34.4109 -22.2254 -76.7715
rradius 24.4673
rwrist -6.14502
rhand -17.3332 17.5969
rfingers 7.12502
rthumb 8.91378 -12.1948
lclavicle -5.20816e-014 -4.96962e-015
lhumerus -48.1613 30.1825 61.7848
lradius 23.4993
lwrist -17.3265
lhand 3.11795 31.0301
lfingers 7.12502
lthumb 28.5733 58.8664
rfemur 18.4376 -1.36506 30.4252
rtibia -3.18055e-015
rfoot -4.80273 -2.53155
rtoes -16.1409
lfemur -35.5744 -1.63124 -9.43841
ltibia 25.8104
lfoot -14.0011 -0.910633
ltoes -17.9741
134
root 13.8652 17.7104 4.85058 3.49157 14.0728 -6.46735
lowerback 1.30009 3.45051 3.42434
upperback 0.917499 4.63978 2.6499
thorax 0.265726 2.33088 0.759076
lowerneck 0.46832 -14.694 -18.3472
upperneck 13.3078 -21.711 16.8898
head 7.92206 -10.621 6.33743
rclavicle 9.31306e-014 4.57205e-014
rhumerus -33.8977 -22.5556 -76.774
rradius 24.3094
rwrist -6.08531
rhand -18.4618 20.1533
rfingers 7.12502
rthumb 7.82462 -9.68191
lclavicle 9.31306e-014 4.57205e-014
lhumerus -48.3857 31.0906 61.2731
lradius 23.1618
lwrist -18.3926
lhand 3.61255 31.1979
lfingers 7.12502
lthumb 29.0457 58.9538
rfemur 17.9608 -0.780771 30.3029
rtibia 2.40015
rfoot -4.87018 -2.6379
rtoes -19.4796
lfemur -34.9427 -1.62879 -9.49671
ltibia 25.9436
lfoot -13.5592 -1.99396
ltoes -18.4394
135
root 13.928 17.6865 5.01757 3.35602 13.4098 -6.37323
lowerback 1.42198 3.608 3.30636
upperback 1.01297 4.85109 2.68377
thorax 0.285345 2.43672 0.852782
lowerneck 0.566778 -14.679 -18.2272
upperneck 12.9075 -21.6175 16.6948
head 7.71804 -10.5938 6.28285
rclavicle -5.74985e-014 4.96962e-015
rhumerus -33.4226 -22.8141 -76.9034
rradius 24.7
rwrist -6.39632
rhand -18.6543 19.3442
rfingers 7.12502
rthumb 7.63879 -10.4979
lclavicle -5.74985e-014 4.96962e-015
lhumerus -49.0362 33.6268 59.0119
lradius 21.7636
lwrist -21.8858
lhand 3.70878 30.556
lfingers 7.12502
lthumb 29.1376 58.296
rfemur 16.1651 -0.233251 30.1092
rtibia 7.50378
rfoot -6.37226 -2.72181
rtoes -20.5727
lfemur -34.3589 -1.84942 -9.50548
ltibia 26.2306
lfoot -12.82 -3.24783
ltoes -19.9125
136
root 14.0026 17.671 5.19484 3.3091 12.8705 -6.40605
lowerback 1.37483 3.68903 3.42043
upperback 1.01977 4.95727 2.71227
thorax 0.326906 2.49062 0.822295
lowerneck 0.466266 -14.6994 -18.1787
upperneck 12.8758 -21.5904 16.4697
head 7.68667 -10.5848 6.19893
rclavicle 3.72721e-014 4.37326e-015
rhumerus -32.973 -22.5371 -77.2022
rradius 24.8858
rwrist -6.80771
rhand -18.6654 18.5128
rfingers 7.12502
rthumb 7.62814 -11.3296
lclavicle 3.72721e-014 4.37326e-015
lhumerus -50.3481 36.764 55.6502
lradius 20.1961
lwrist -26.3962
lhand 3.98134 29.6106
lfingers 7.12502
lthumb 29.3979 57.3053
rfemur 15.2306 0.242138 29.9631
rtibia 10.7084
rfoot -7.03884 -2.77635
rtoes -20.7695
lfemur -33.9031 -2.13184 -9.41438
ltibia 26.5625
lfoot -10.9833 -4.78163
ltoes -21.3741
137
root 14.076 17.6757 5.37677 3.1945 12.1403 -6.47169
lowerback 1.28262 3.80839 3.64674
upperback 1.04913 5.11121 2.6328
thorax 0.437468 2.56994 0.624958
lowerneck 0.659816 -14.6371 -18.1946
upperneck 12.773 -21.5442 16.6062
head 7.62948 -10.5705 6.27049
rclavicle 5.97596e-014 2.34566e-014
rhumerus -32.5488 -22.2609 -77.6366
rradius 24.7989
rwrist -7.072
rhand -18.5473 18.5638
rfingers 7.12502
rthumb 7.74208 -11.2745
lclavicle 5.97596e-014 2.34566e-014
lhumerus -50.7904 37.7716 54.2003
lradius 19.4786
lwrist -28.3363
lhand 4.17509 29.2269
lfingers 7.12502
lthumb 29.5828 56.8889
rfemur 14.509 0.623239 29.7748
rtibia 13.5348
rfoot -6.99118 -2.45732
rtoes -20.0756
lfemur -33.2985 -2.0413 -9.35806
ltibia 26.8621
lfoot -8.32031 -6.19711
ltoes -21.6456
